<svg id="visual" viewBox="0 0 900 600" width="900" height="600" xmlns="http://www.w3.org/2000/svg" xmlns:xlink="http://www.w3.org/1999/xlink" version="1.1"><rect x="0" y="0" width="900" height="600" fill="#000000"></rect><defs><linearGradient id="grad1_0" x1="33.3%" y1="0%" x2="100%" y2="100%"><stop offset="20%" stop-color="#dc2626" stop-opacity="1"></stop><stop offset="80%" stop-color="#dc2626" stop-opacity="1"></stop></linearGradient></defs><defs><linearGradient id="grad1_1" x1="33.3%" y1="0%" x2="100%" y2="100%"><stop offset="20%" stop-color="#dc2626" stop-opacity="1"></stop><stop offset="80%" stop-color="#c20014" stop-opacity="1"></stop></linearGradient></defs><defs><linearGradient id="grad1_2" x1="33.3%" y1="0%" x2="100%" y2="100%"><stop offset="20%" stop-color="#a80001" stop-opacity="1"></stop><stop offset="80%" stop-color="#c20014" stop-opacity="1"></stop></linearGradient></defs><defs><linearGradient id="grad1_3" x1="33.3%" y1="0%" x2="100%" y2="100%"><stop offset="20%" stop-color="#a80001" stop-opacity="1"></stop><stop offset="80%" stop-color="#8f0000" stop-opacity="1"></stop></linearGradient></defs><defs><linearGradient id="grad1_4" x1="33.3%" y1="0%" x2="100%" y2="100%"><stop offset="20%" stop-color="#780000" stop-opacity="1"></stop><stop offset="80%" stop-color="#8f0000" stop-opacity="1"></stop></linearGradient></defs><defs><linearGradient id="grad1_5" x1="33.3%" y1="0%" x2="100%" y2="100%"><stop offset="20%" stop-color="#780000" stop-opacity="1"></stop><stop offset="80%" stop-color="#610000" stop-opacity="1"></stop></linearGradient></defs><defs><linearGradient id="grad1_6" x1="33.3%" y1="0%" x2="100%" y2="100%"><stop offset="20%" stop-color="#000000" stop-opacity="1"></stop><stop offset="80%" stop-color="#610000" stop-opacity="1"></stop></linearGradient></defs><defs><linearGradient id="grad2_0" x1="0%" y1="0%" x2="66.7%" y2="100%"><stop offset="20%" stop-color="#dc2626" stop-opacity="1"></stop><stop offset="80%" stop-color="#dc2626" stop-opacity="1"></stop></linearGradient></defs><defs><linearGradient id="grad2_1" x1="0%" y1="0%" x2="66.7%" y2="100%"><stop offset="20%" stop-color="#c20014" stop-opacity="1"></stop><stop offset="80%" stop-color="#dc2626" stop-opacity="1"></stop></linearGradient></defs><defs><linearGradient id="grad2_2" x1="0%" y1="0%" x2="66.7%" y2="100%"><stop offset="20%" stop-color="#c20014" stop-opacity="1"></stop><stop offset="80%" stop-color="#a80001" stop-opacity="1"></stop></linearGradient></defs><defs><linearGradient id="grad2_3" x1="0%" y1="0%" x2="66.7%" y2="100%"><stop offset="20%" stop-color="#8f0000" stop-opacity="1"></stop><stop offset="80%" stop-color="#a80001" stop-opacity="1"></stop></linearGradient></defs><defs><linearGradient id="grad2_4" x1="0%" y1="0%" x2="66.7%" y2="100%"><stop offset="20%" stop-color="#8f0000" stop-opacity="1"></stop><stop offset="80%" stop-color="#780000" stop-opacity="1"></stop></linearGradient></defs><defs><linearGradient id="grad2_5" x1="0%" y1="0%" x2="66.7%" y2="100%"><stop offset="20%" stop-color="#610000" stop-opacity="1"></stop><stop offset="80%" stop-color="#780000" stop-opacity="1"></stop></linearGradient></defs><defs><linearGradient id="grad2_6" x1="0%" y1="0%" x2="66.7%" y2="100%"><stop offset="20%" stop-color="#610000" stop-opacity="1"></stop><stop offset="80%" stop-color="#000000" stop-opacity="1"></stop></linearGradient></defs><g transform="translate(900, 0)"><path d="M0 486.7C-26.7 490.7 -53.5 494.7 -76.1 480.8C-98.8 466.8 -117.3 435 -133.5 410.9C-149.6 386.8 -163.4 370.4 -187.5 368C-211.6 365.6 -246.1 377 -270.4 372.1C-294.7 367.3 -308.8 346 -330.9 330.9C-353 315.9 -383 307 -391.6 284.5C-400.1 261.9 -387.2 225.7 -392 199.8C-396.9 173.8 -419.4 158.3 -422.3 137.2C-425.1 116.2 -408.3 89.6 -415.8 65.9C-423.3 42.1 -455 21 -486.7 0L0 0Z" fill="#570000"></path><path d="M0 417.2C-22.9 420.6 -45.9 424 -65.3 412.1C-84.7 400.1 -100.6 372.8 -114.4 352.2C-128.3 331.5 -140 317.5 -160.7 315.4C-181.4 313.3 -210.9 323.2 -231.8 319C-252.6 314.8 -264.7 296.6 -283.7 283.7C-302.6 270.7 -328.3 263.2 -335.6 243.8C-343 224.5 -331.9 193.4 -336 171.2C-340.2 149 -359.5 135.6 -361.9 117.6C-364.4 99.6 -350 76.8 -356.4 56.5C-362.8 36.1 -390 18 -417.2 0L0 0Z" fill="#6c0000"></path><path d="M0 347.7C-19.1 350.5 -38.2 353.4 -54.4 343.4C-70.6 333.4 -83.8 310.7 -95.4 293.5C-106.9 276.3 -116.7 264.6 -133.9 262.8C-151.1 261.1 -175.8 269.3 -193.1 265.8C-210.5 262.3 -220.6 247.1 -236.4 236.4C-252.1 225.6 -273.6 219.3 -279.7 203.2C-285.8 187.1 -276.6 161.2 -280 142.7C-283.5 124.2 -299.6 113 -301.6 98C-303.7 83 -291.7 64 -297 47C-302.3 30.1 -325 15 -347.7 0L0 0Z" fill="#830000"></path><path d="M0 278.1C-15.3 280.4 -30.6 282.7 -43.5 274.7C-56.5 266.8 -67.1 248.5 -76.3 234.8C-85.5 221 -93.4 211.7 -107.1 210.3C-120.9 208.9 -140.6 215.5 -154.5 212.7C-168.4 209.9 -176.5 197.7 -189.1 189.1C-201.7 180.5 -218.9 175.4 -223.8 162.6C-228.6 149.7 -221.3 129 -224 114.1C-226.8 99.3 -239.7 90.4 -241.3 78.4C-242.9 66.4 -233.3 51.2 -237.6 37.6C-241.9 24 -260 12 -278.1 0L0 0Z" fill="#9c0000"></path><path d="M0 208.6C-11.5 210.3 -22.9 212 -32.6 206C-42.3 200.1 -50.3 186.4 -57.2 176.1C-64.1 165.8 -70 158.7 -80.4 157.7C-90.7 156.7 -105.5 161.6 -115.9 159.5C-126.3 157.4 -132.4 148.3 -141.8 141.8C-151.3 135.4 -164.1 131.6 -167.8 121.9C-171.5 112.3 -166 96.7 -168 85.6C-170.1 74.5 -179.7 67.8 -181 58.8C-182.2 49.8 -175 38.4 -178.2 28.2C-181.4 18 -195 9 -208.6 0L0 0Z" fill="#b5000b"></path><path d="M0 139.1C-7.6 140.2 -15.3 141.3 -21.8 137.4C-28.2 133.4 -33.5 124.3 -38.1 117.4C-42.8 110.5 -46.7 105.8 -53.6 105.1C-60.5 104.4 -70.3 107.7 -77.3 106.3C-84.2 104.9 -88.2 98.9 -94.6 94.6C-100.9 90.2 -109.4 87.7 -111.9 81.3C-114.3 74.8 -110.6 64.5 -112 57.1C-113.4 49.7 -119.8 45.2 -120.6 39.2C-121.5 33.2 -116.7 25.6 -118.8 18.8C-120.9 12 -130 6 -139.1 0L0 0Z" fill="#cf121d"></path><path d="M0 69.5C-3.8 70.1 -7.6 70.7 -10.9 68.7C-14.1 66.7 -16.8 62.1 -19.1 58.7C-21.4 55.3 -23.3 52.9 -26.8 52.6C-30.2 52.2 -35.2 53.9 -38.6 53.2C-42.1 52.5 -44.1 49.4 -47.3 47.3C-50.4 45.1 -54.7 43.9 -55.9 40.6C-57.2 37.4 -55.3 32.2 -56 28.5C-56.7 24.8 -59.9 22.6 -60.3 19.6C-60.7 16.6 -58.3 12.8 -59.4 9.4C-60.5 6 -65 3 -69.5 0L0 0Z" fill="#dc2626"></path></g><g transform="translate(0, 600)"><path d="M0 -486.7C17.3 -438.1 34.6 -389.5 62.7 -396.1C90.9 -402.6 129.8 -464.2 150.4 -462.9C171 -461.6 173.3 -397.4 188.4 -369.8C203.5 -342.2 231.4 -351.2 247.5 -340.6C263.5 -330 267.6 -299.7 284.3 -284.3C300.9 -268.8 330 -268.3 359.2 -261C388.4 -253.7 417.6 -239.7 426.8 -217.5C435.9 -195.3 425 -164.8 432.7 -140.6C440.5 -116.4 466.9 -98.3 479 -75.9C491.1 -53.5 488.9 -26.7 486.7 0L0 0Z" fill="#570000"></path><path d="M0 -417.2C14.8 -375.6 29.7 -333.9 53.8 -339.5C77.9 -345.1 111.3 -397.9 128.9 -396.8C146.6 -395.7 148.5 -340.6 161.5 -316.9C174.4 -293.3 198.4 -301 212.1 -291.9C225.8 -282.8 229.4 -256.9 243.6 -243.6C257.9 -230.4 282.9 -229.9 307.9 -223.7C332.9 -217.4 358 -205.4 365.8 -186.4C373.7 -167.4 364.3 -141.3 370.9 -120.5C377.5 -99.7 400.2 -84.2 410.6 -65C421 -45.8 419.1 -22.9 417.2 0L0 0Z" fill="#6c0000"></path><path d="M0 -347.7C12.4 -313 24.7 -278.2 44.8 -282.9C64.9 -287.6 92.7 -331.6 107.4 -330.7C122.2 -329.7 123.8 -283.8 134.6 -264.1C145.4 -244.4 165.3 -250.9 176.8 -243.3C188.2 -235.7 191.2 -214.1 203 -203C214.9 -192 235.7 -191.6 256.6 -186.4C277.4 -181.2 298.3 -171.2 304.9 -155.3C311.4 -139.5 303.6 -117.7 309.1 -100.4C314.6 -83.1 333.5 -70.2 342.2 -54.2C350.8 -38.2 349.2 -19.1 347.7 0L0 0Z" fill="#830000"></path><path d="M0 -278.1C9.9 -250.4 19.8 -222.6 35.8 -226.3C51.9 -230 74.2 -265.3 86 -264.5C97.7 -263.8 99 -227.1 107.7 -211.3C116.3 -195.5 132.2 -200.7 141.4 -194.6C150.6 -188.6 152.9 -171.2 162.4 -162.4C171.9 -153.6 188.6 -153.3 205.3 -149.1C221.9 -145 238.7 -137 243.9 -124.3C249.1 -111.6 242.9 -94.2 247.3 -80.3C251.7 -66.5 266.8 -56.2 273.7 -43.4C280.7 -30.6 279.4 -15.3 278.1 0L0 0Z" fill="#9c0000"></path><path d="M0 -208.6C7.4 -187.8 14.8 -166.9 26.9 -169.7C38.9 -172.5 55.6 -199 64.5 -198.4C73.3 -197.8 74.3 -170.3 80.7 -158.5C87.2 -146.6 99.2 -150.5 106.1 -146C112.9 -141.4 114.7 -128.4 121.8 -121.8C129 -115.2 141.4 -115 153.9 -111.8C166.5 -108.7 179 -102.7 182.9 -93.2C186.8 -83.7 182.1 -70.6 185.5 -60.3C188.8 -49.9 200.1 -42.1 205.3 -32.5C210.5 -22.9 209.5 -11.5 208.6 0L0 0Z" fill="#b5000b"></path><path d="M0 -139.1C4.9 -125.2 9.9 -111.3 17.9 -113.2C26 -115 37.1 -132.6 43 -132.3C48.9 -131.9 49.5 -113.5 53.8 -105.6C58.1 -97.8 66.1 -100.3 70.7 -97.3C75.3 -94.3 76.5 -85.6 81.2 -81.2C86 -76.8 94.3 -76.6 102.6 -74.6C111 -72.5 119.3 -68.5 121.9 -62.1C124.6 -55.8 121.4 -47.1 123.6 -40.2C125.8 -33.2 133.4 -28.1 136.9 -21.7C140.3 -15.3 139.7 -7.6 139.1 0L0 0Z" fill="#cf121d"></path><path d="M0 -69.5C2.5 -62.6 4.9 -55.6 9 -56.6C13 -57.5 18.5 -66.3 21.5 -66.1C24.4 -65.9 24.8 -56.8 26.9 -52.8C29.1 -48.9 33.1 -50.2 35.4 -48.7C37.6 -47.1 38.2 -42.8 40.6 -40.6C43 -38.4 47.1 -38.3 51.3 -37.3C55.5 -36.2 59.7 -34.2 61 -31.1C62.3 -27.9 60.7 -23.5 61.8 -20.1C62.9 -16.6 66.7 -14 68.4 -10.8C70.2 -7.6 69.8 -3.8 69.5 0L0 0Z" fill="#dc2626"></path></g></svg>